<?xml version="1.0" encoding="UTF-8" standalone="no"?>
<!-- Created with Inkscape (http://www.inkscape.org/) -->

<svg
   version="1.1"
   id="svg824"
   width="824.52338"
   height="1179.671"
   viewBox="0 0 824.52338 1179.671"
   xmlns:xlink="http://www.w3.org/1999/xlink"
   xmlns="http://www.w3.org/2000/svg"
   xmlns:svg="http://www.w3.org/2000/svg">
  <defs
     id="defs828">
    <linearGradient
       id="linearGradient58875">
      <stop
         style="stop-color:#434b82;stop-opacity:0.98039216"
         offset="0"
         id="stop58871" />
      <stop
         style="stop-color:#3c8e50;stop-opacity:0.98039216"
         offset="0.47385558"
         id="stop63470" />
      <stop
         style="stop-color:#e6b92a;stop-opacity:0.98039216"
         offset="1"
         id="stop58873" />
    </linearGradient>
    <linearGradient
       id="linearGradient54530">
      <stop
         style="stop-color:#ebaf2c;stop-opacity:0.98039216"
         offset="0"
         id="stop54526" />
      <stop
         style="stop-color:#d02d4a;stop-opacity:0.98039216"
         offset="0.38242045"
         id="stop57445" />
      <stop
         style="stop-color:#c838a1;stop-opacity:0.98039216"
         offset="0.65576315"
         id="stop56505" />
      <stop
         style="stop-color:#563b88;stop-opacity:0.98039216"
         offset="1"
         id="stop54528" />
    </linearGradient>
    <linearGradient
       id="linearGradient48494">
      <stop
         style="stop-color:#dd3bb3;stop-opacity:0.98039216"
         offset="0"
         id="stop48490" />
      <stop
         style="stop-color:#5c428c;stop-opacity:0.98039216"
         offset="1"
         id="stop48492" />
    </linearGradient>
    <linearGradient
       id="linearGradient40374">
      <stop
         style="stop-color:#009565;stop-opacity:0.98039216"
         offset="0"
         id="stop40370" />
      <stop
         style="stop-color:#e89024;stop-opacity:0.98039216"
         offset="0.34429038"
         id="stop44878" />
      <stop
         style="stop-color:#b91b3e;stop-opacity:0.98039216"
         offset="1"
         id="stop40372" />
    </linearGradient>
    <linearGradient
       id="linearGradient23803">
      <stop
         style="stop-color:#368e52;stop-opacity:1;"
         offset="0"
         id="stop23801" />
    </linearGradient>
    <linearGradient
       xlink:href="#linearGradient40374"
       id="linearGradient40376"
       x1="2502.7393"
       y1="1240.9995"
       x2="3281.6711"
       y2="441.1073"
       gradientUnits="userSpaceOnUse" />
    <linearGradient
       xlink:href="#linearGradient48494"
       id="linearGradient48496"
       x1="1817"
       y1="514"
       x2="1933.5"
       y2="137.49997"
       gradientUnits="userSpaceOnUse" />
    <linearGradient
       xlink:href="#linearGradient54530"
       id="linearGradient54532"
       x1="646.875"
       y1="1121.875"
       x2="950"
       y2="100"
       gradientUnits="userSpaceOnUse" />
    <linearGradient
       xlink:href="#linearGradient58875"
       id="linearGradient58877"
       x1="226.58911"
       y1="384.02487"
       x2="428.17517"
       y2="1175.7708"
       gradientUnits="userSpaceOnUse" />
  </defs>
  <g
     id="g1245"
     transform="translate(-107.26485,-79.109261)">
    <path
       style="fill:url(#linearGradient58877);fill-opacity:1"
       d="m 528,1257.0749 c -12.95208,-2.7834 -21.68563,-5.6226 -30.66598,-9.9692 -27.84433,-13.4771 -52.59948,-39.0111 -69.15885,-71.335 C 344.67143,981.05812 319.23068,716.0174 237.35919,491.22213 c -6.62946,-18.20258 -17.93041,-36.0139 -29.28439,-47.15471 -14.8068,-14.5288 -38.76484,-27.70087 -67.37837,-37.04446 -11.32736,-3.69889 -22.29965,-13.51363 -27.69965,-24.77742 -1.71763,-3.58278 -3.68772,-10.20382 -4.61202,-15.5 -5.41417,-31.02283 9.04527,-63.45771 38.11524,-85.4987 18.52406,-14.04503 50.51426,-22.92847 72.66004,-20.17716 15.07676,1.87309 36.11124,10.17806 51.96788,20.5183 17.6018,11.47827 38.46773,30.59211 52.30392,47.91202 3.07562,3.85 6.01826,7.52382 6.53922,8.16403 0.52095,0.64022 4.07028,5.81522 7.88739,11.5 15.61456,23.2546 39.41969,68.12176 51.51493,112.63172 71.922,264.66986 122.99382,500.81391 181.1897,744.88805 4.09031,17.1512 7.42704,32.6762 7.41496,34.5 -0.0121,1.8239 -0.57464,5.2487 -1.89523,7.4414 -1.79319,2.9774 -4.59665,5.4918 -7.72804,7 -5.73722,2.7633 -12.4927,2.8012 -18.85477,3.0756 -7.18045,0.3097 -15.31513,-0.2967 -21.5,-1.6259 z"
       id="path1364" />
    <path
       style="fill:url(#linearGradient54532);fill-opacity:1"
       d="m 529.42895,962.8848 c 78.58576,-288.0403 137.84346,-493.33935 210.54882,-753.885 9.46429,-33.9205 12.81284,-43.6422 19.21408,-55.7828 15.2738,-28.9686 41.8943,-50.7243 79.0511,-64.605 41.9311,-15.6641 73.5518,-11.846 87.6883,10.5882 6.4134,10.178 7.5246,20.0958 3.5068,31.2996 L 596.48899,1240.348 c 0,0 -46.53173,-195.4938 -67.06004,-277.4632 z"
       id="path1364-3" />
  </g>
</svg>
