<?xml version="1.0" encoding="UTF-8" standalone="no"?>
<!-- Created with Inkscape (http://www.inkscape.org/) -->

<svg
   width="47.625mm"
   height="47.625mm"
   viewBox="0 0 47.625 47.625"
   version="1.1"
   id="svg4859"
   inkscape:version="1.1.1 (3bf5ae0d25, 2021-09-20)"
   sodipodi:docname="tiktok.svg"
   xmlns:inkscape="http://www.inkscape.org/namespaces/inkscape"
   xmlns:sodipodi="http://sodipodi.sourceforge.net/DTD/sodipodi-0.dtd"
   xmlns="http://www.w3.org/2000/svg"
   xmlns:svg="http://www.w3.org/2000/svg">
  <sodipodi:namedview
     id="namedview4861"
     pagecolor="#ffffff"
     bordercolor="#666666"
     borderopacity="1.0"
     inkscape:pageshadow="2"
     inkscape:pageopacity="0.0"
     inkscape:pagecheckerboard="0"
     inkscape:document-units="mm"
     showgrid="false"
     fit-margin-top="0"
     fit-margin-left="0"
     fit-margin-right="0"
     fit-margin-bottom="0"
     inkscape:zoom="0.75187991"
     inkscape:cx="271.98492"
     inkscape:cy="438.89988"
     inkscape:window-width="1920"
     inkscape:window-height="1043"
     inkscape:window-x="0"
     inkscape:window-y="0"
     inkscape:window-maximized="1"
     inkscape:current-layer="layer1" />
  <defs
     id="defs4856" />
  <g
     inkscape:label="Calque 1"
     inkscape:groupmode="layer"
     id="layer1"
     transform="translate(-33.194609,-32.490813)">
    <path
       style="fill:#000000;fill-opacity:1;fill-rule:nonzero;stroke:none;stroke-width:0.352778"
       d="m 80.819608,56.303313 c 0,13.15062 -10.661882,23.812499 -23.812499,23.812499 -13.151996,0 -23.8125,-10.661879 -23.8125,-23.812499 0,-13.151997 10.660504,-23.8125 23.8125,-23.8125 13.150617,0 23.812499,10.660503 23.812499,23.8125"
       id="path3578" />
    <path
       style="fill:#ffffff;fill-opacity:1;fill-rule:nonzero;stroke:none;stroke-width:0.352778"
       d="m 50.651595,65.86001 0.08544,0.07855 c 0.263204,0.188792 0.454752,0.453375 0.706935,0.655947 0.782726,0.628386 1.663291,0.970139 2.673392,1.03353 2.392275,0.147447 4.477248,-1.653646 4.747341,-4.01974 0.01379,-0.115754 0.0097,-0.231511 0.0097,-0.347264 0,-7.123081 0,-14.246158 0,-21.370618 0,-0.479555 0,-0.479555 0.478176,-0.479555 1.08314,0 2.164898,-0.0014 3.246659,0 0.101974,0 0.208083,-0.0193 0.300412,0.04548 l 0.0193,0.01517 c 0.05237,0.05237 0.06752,0.121267 0.08268,0.191547 0.414793,1.919609 1.424894,3.451987 3.009636,4.60816 0.09922,0.07304 0.181902,0.162609 0.276987,0.239779 0.0689,0.05788 0.137805,0.117133 0.206706,0.17501 0.256315,0.146075 0.436838,0.378961 0.658703,0.564998 0.876431,0.72898 1.865863,1.233343 2.96967,1.51722 0.09646,0.0248 0.208086,0.02342 0.278366,0.115753 l 0.01792,0.01517 c 0.06477,0.0689 0.05374,0.155719 0.05374,0.237024 0.0014,1.256771 0.0014,2.512162 0,3.767554 0,0.288011 -0.03858,0.30317 -0.32935,0.30317 -0.919151,0.0014 -1.823145,-0.122647 -2.717493,-0.327974 -1.536513,-0.351398 -2.955889,-0.975649 -4.27054,-1.841059 -0.0689,-0.0441 -0.141937,-0.140561 -0.214973,-0.107488 -0.09371,0.04272 -0.0441,0.161234 -0.0441,0.246669 -0.0028,3.536047 0.01242,7.070715 -0.0069,10.606761 -0.01517,2.4722 -0.80064,4.682575 -2.418457,6.566352 -1.719792,2.000913 -3.902604,3.162596 -6.52501,3.482301 -2.018827,0.248049 -3.935677,-0.118509 -5.754687,-1.016991 -0.294901,-0.144692 -0.576023,-0.314191 -0.839227,-0.512629 -0.08268,-0.07304 -0.166744,-0.14745 -0.249424,-0.220486 -0.62701,-0.518142 -1.062468,-1.18787 -1.470367,-1.875511 -0.627006,-1.058333 -1.03353,-2.200727 -1.231967,-3.41478 -0.114378,-0.694531 -0.172255,-1.394572 -0.133668,-2.097373 0.124023,-2.264117 0.886076,-4.28432 2.345419,-6.030295 1.225077,-1.464853 2.7547,-2.488738 4.555796,-3.10334 0.752408,-0.256318 1.528244,-0.416168 2.32337,-0.47129 0.147451,-0.01101 0.293522,-0.04548 0.442352,-0.03721 0.07028,0.0055 0.143316,-0.0028 0.203948,0.04685 l 0.02205,0.01517 c 0.04134,0.07028 0.0303,0.150205 0.0303,0.226 0.0014,1.274684 0.0014,2.54799 0.0014,3.822675 0,0.04548 -0.0014,0.09095 -0.0041,0.13505 -0.0055,0.128157 -0.07028,0.170875 -0.191547,0.136423 -0.348644,-0.09922 -0.706935,-0.144692 -1.066603,-0.163985 -0.559481,-0.0303 -1.10932,0.04961 -1.631597,0.242534 -1.751485,0.6463 -2.815332,1.901695 -3.037194,3.749643 -0.219111,1.821766 0.500228,3.278354 2.014692,4.328418 0.126778,0.08819 0.25769,0.169499 0.376203,0.268718"
       id="path3580" />
    <path
       style="fill:#ca1951;fill-opacity:1;fill-rule:nonzero;stroke:none;stroke-width:0.352778"
       d="m 47.352573,70.302805 c 0.06753,-0.01792 0.106108,0.03583 0.15296,0.06339 1.139638,0.69591 2.36885,1.149286 3.684877,1.361503 0.662834,0.106109 1.331182,0.150206 2.00091,0.115754 2.242068,-0.115754 4.247113,-0.861272 5.982063,-2.294432 1.670184,-1.379417 2.779504,-3.122633 3.334854,-5.215876 0.17501,-0.660078 0.271473,-1.33394 0.305922,-2.017447 0.0193,-0.392741 0.01792,-0.785481 0.01792,-1.178222 0.0014,-3.369303 0.0014,-6.738605 0.0014,-10.107912 0,-0.07717 0,-0.152961 0,-0.230131 0.08819,-0.02342 0.126781,0.04272 0.176389,0.07579 1.198894,0.821312 2.498383,1.429029 3.899849,1.814879 0.770322,0.212217 1.553048,0.354154 2.349556,0.423055 0.334861,0.0303 0.669724,0.0248 1.003212,0.04961 0.146071,0.01101 0.147447,0.0055 0.150206,-0.147451 0.0014,-0.16123 0,-0.32246 0,-0.48369 0,-1.139638 0,-2.280655 0,-3.420293 0,-0.07166 0.0041,-0.141937 0.0069,-0.212217 0.300411,0.03306 0.596688,0.09784 0.898479,0.121267 0.186038,0.01379 0.372071,0.0303 0.559485,0.0248 0.09233,-0.0028 0.130912,0.0303 0.121267,0.122646 -0.0055,0.03859 -0.0014,0.07717 -0.0014,0.115757 0,1.649512 0,3.299023 0,4.947155 0,0.03306 0.0014,0.06477 0,0.09646 -0.0041,0.144696 -0.0041,0.147451 -0.155716,0.147451 -0.515387,-0.0028 -1.030775,-0.03583 -1.542027,-0.103353 -1.043175,-0.139182 -2.058787,-0.39412 -3.03995,-0.777212 -0.939824,-0.365182 -1.8259,-0.832337 -2.656857,-1.404222 -0.05099,-0.03583 -0.104733,-0.06752 -0.183279,-0.118512 0,0.0937 0,0.16261 0,0.230131 0,3.600814 0.0028,7.20163 -0.0014,10.80382 -0.0028,1.918229 -0.498849,3.701411 -1.522734,5.328874 -1.237477,1.963705 -2.953134,3.345878 -5.134567,4.138249 -1.324296,0.480934 -2.694065,0.665592 -4.102421,0.562239 -2.37436,-0.175009 -4.427636,-1.081761 -6.176366,-2.69131 -0.04686,-0.04272 -0.08682,-0.0937 -0.129537,-0.140557"
       id="path3582" />
    <path
       style="fill:#68b8c5;fill-opacity:1;fill-rule:nonzero;stroke:none;stroke-width:0.352778"
       d="m 62.899598,41.456332 c -0.07028,0.0041 -0.140561,0.0096 -0.210837,0.0096 -1.160311,0 -2.320618,0 -3.480926,0 -0.268718,0 -0.268718,0 -0.268718,0.260449 0,7.085873 0,14.173122 0.0014,21.258995 0.0014,0.491959 -0.03583,0.978408 -0.190172,1.446939 -0.544326,1.65916 -1.656401,2.751942 -3.3569,3.139172 -1.824524,0.417544 -3.373437,-0.139181 -4.605404,-1.553048 l -0.05099,-0.07993 c 0.352778,0.139182 0.704176,0.281122 1.079003,0.354158 1.187869,0.235644 2.308214,0.05374 3.340364,-0.581533 1.190625,-0.734494 1.894805,-1.809362 2.141474,-3.18327 0.04685,-0.260448 0.05374,-0.525032 0.05374,-0.789615 -0.0014,-7.099653 -0.0014,-14.199305 0,-21.297578 0,-0.33073 -0.04685,-0.289388 0.282498,-0.289388 1.637111,-0.0014 3.274218,-0.0014 4.911329,-0.0014 0.03858,0 0.07855,0 0.115754,0 0.16812,0.0028 0.170878,0.0028 0.170878,0.172255 -0.0028,0.38034 -0.0069,0.759301 0.06752,1.134127"
       id="path3584" />
    <path
       style="fill:#68b8c5;fill-opacity:1;fill-rule:nonzero;stroke:none;stroke-width:0.352778"
       d="m 54.138031,53.099374 c -1.000453,0.03306 -1.978861,0.191548 -2.929707,0.507118 -1.373903,0.457511 -2.594846,1.172711 -3.658693,2.153875 -1.397328,1.287088 -2.349553,2.848405 -2.870454,4.67155 -0.186034,0.650434 -0.293522,1.314647 -0.340374,1.991264 -0.02755,0.405145 -0.03721,0.810285 -0.01517,1.214053 0.05926,1.12448 0.292146,2.213127 0.720715,3.257681 0.4768,1.167197 1.145148,2.210375 2.016068,3.125392 l 0.04272,0.06201 c -0.197061,-0.08544 -0.355532,-0.228755 -0.520897,-0.359667 -1.624707,-1.287089 -2.76848,-2.910417 -3.399621,-4.889281 -0.21911,-0.687642 -0.355536,-1.393197 -0.421682,-2.112532 -0.04823,-0.522277 -0.05374,-1.043175 -0.02067,-1.562696 0.07855,-1.198895 0.362423,-2.349553 0.857141,-3.445094 0.516763,-1.145152 1.222318,-2.162143 2.119422,-3.041333 1.044553,-1.023881 2.255848,-1.790072 3.633886,-2.286165 0.86541,-0.311436 1.754244,-0.498849 2.672016,-0.566371 0.664214,-0.04823 1.324296,-0.03447 1.984375,0.0441 0.08957,0.01101 0.141937,0.02893 0.139182,0.135047 -0.0069,0.366557 -0.0055,0.734494 -0.0083,1.101051"
       id="path3586" />
    <path
       style="fill:#ca1951;fill-opacity:1;fill-rule:nonzero;stroke:none;stroke-width:0.352778"
       d="m 50.651595,65.86001 c -0.403765,-0.181903 -0.752408,-0.445107 -1.067978,-0.748277 -0.79513,-0.764812 -1.267795,-1.697743 -1.390442,-2.793284 -0.257694,-2.299945 1.192004,-4.28432 3.205318,-4.898923 0.859895,-0.261828 1.719791,-0.271476 2.585197,-0.03859 0.04823,0.01242 0.09646,0.03306 0.15021,0.0193 0.02755,-0.0689 0.01379,-0.14056 0.01379,-0.210841 0.0014,-1.287088 0,-2.575553 0.0014,-3.864017 0,-0.07028 0.0069,-0.140561 0.01101,-0.210841 0.496094,-0.03447 0.989432,0.0096 1.482771,0.06477 0.07717,0.0097 0.09784,0.04548 0.09646,0.113002 -0.0014,0.03858 0,0.07717 0,0.115753 0,1.707392 0,3.413401 -0.0014,5.119413 0,0.06339 0.01792,0.129536 -0.02342,0.197058 -0.224617,-0.04272 -0.445103,-0.110243 -0.673859,-0.141937 -1.318782,-0.184658 -2.508031,0.122647 -3.552581,0.945335 -0.917776,0.72347 -1.481392,1.672939 -1.671563,2.823598 -0.201193,1.220943 0.05099,2.353691 0.753787,3.378952 0.02893,0.04272 0.05375,0.08682 0.08131,0.129536"
       id="path3588" />
    <path
       style="fill:#ca1951;fill-opacity:1;fill-rule:nonzero;stroke:none;stroke-width:0.352778"
       d="m 66.288195,46.510974 c -0.496094,-0.293521 -0.930177,-0.664213 -1.331186,-1.074868 -1.072113,-1.10381 -1.750106,-2.414323 -2.036738,-3.927411 l -0.0014,-0.03721 c 0.463021,-0.02755 0.926042,-0.0041 1.389062,-0.01238 0.08268,-0.0028 0.118513,0.0303 0.111623,0.112998 -0.0028,0.03168 0,0.06477 0,0.09646 -0.0248,1.298113 0.361043,2.483224 0.993563,3.599434 0.226,0.398254 0.496094,0.766191 0.790995,1.117589 0.03168,0.03859 0.07855,0.0689 0.08406,0.125402"
       id="path3590" />
    <path
       style="fill:#68b8c5;fill-opacity:1;fill-rule:nonzero;stroke:none;stroke-width:0.352778"
       d="m 70.40164,48.883955 c -1.320162,-0.282497 -2.480469,-0.87781 -3.487815,-1.773534 -0.14883,-0.132291 -0.300412,-0.260448 -0.418924,-0.424437 0.04961,-0.0041 0.08544,0.02618 0.124023,0.04823 0.799264,0.456131 1.656401,0.757922 2.563152,0.908127 0.354154,0.05788 0.712446,0.09646 1.073489,0.09233 0.150209,-0.0014 0.15434,0.0041 0.15434,0.147451 -0.0014,0.333484 -0.0055,0.666968 -0.0083,1.001832"
       id="path3592" />
  </g>
</svg>
